<svg xmlns="http://www.w3.org/2000/svg" width="784.59" height="368.76" viewBox="0 0 784.59 368.76"><title>si-customize</title><path d="M62.1,232.087l13.789-21.311a319.33,319.33,0,0,0-14.147-33.117l-8.916,7.2,7.06-10.911c-6.729-13.245-12.023-21.59-12.023-21.59s-27.655,43.58-36.894,89.721l17.7,27.347L9.075,253.606A129.186,129.186,0,0,0,8,269.814C8,324.46,25.847,368.76,47.863,368.76s39.863-44.3,39.863-98.946c0-16.941-3.832-34.665-9.119-51.06Z" fill="#f2f4f6"/><path d="M107.779.326H677.057a3,3,0,0,1,3,3V368.76H104.779V3.326A3,3,0,0,1,107.779.326Z" fill="#e6e6e6"/><rect x="115.133" y="38.119" width="554.57" height="320.692" fill="#fff"/><path d="M107.533,0H676.811a3,3,0,0,1,3,3V24.44H104.533V3A3,3,0,0,1,107.533,0Z" fill="#3857f1"/><circle cx="122.695" cy="12.495" r="4.53" fill="#fff"/><circle cx="139.889" cy="12.495" r="4.53" fill="#fff"/><circle cx="157.082" cy="12.495" r="4.53" fill="#fff"/><rect x="170.511" y="77.709" width="139.366" height="238.083" fill="#e6e6e6"/><rect x="333.934" y="77.709" width="116.138" height="65.535" fill="#3857f1"/><rect x="333.934" y="161.494" width="116.138" height="70.512" fill="#e6e6e6"/><rect x="333.934" y="250.257" width="116.138" height="65.535" fill="#e6e6e6"/><rect x="474.959" y="77.709" width="139.366" height="103.755" fill="#e6e6e6"/><rect x="474.959" y="212.036" width="139.366" height="103.755" fill="#c7d1f2"/><path d="M744.59,162.076H743.1V121.268A23.618,23.618,0,0,0,719.482,97.65H633.026a23.619,23.619,0,0,0-23.619,23.618h0V345.142a23.619,23.619,0,0,0,23.619,23.618h86.456A23.618,23.618,0,0,0,743.1,345.142h0V191.123h1.49Z" fill="#57576b"/><path d="M738.071,122.656V346.2a17.639,17.639,0,0,1-17.636,17.642H633.562A17.639,17.639,0,0,1,615.926,346.2V122.656a17.637,17.637,0,0,1,17.636-17.635H644.1a8.379,8.379,0,0,0,7.76,11.542h49.53a8.379,8.379,0,0,0,7.759-11.542h11.285A17.637,17.637,0,0,1,738.071,122.656Z" fill="#fff"/><rect x="651.938" y="134.743" width="73.396" height="2.727" fill="#ccc"/><rect x="651.938" y="143.38" width="73.396" height="2.727" fill="#ccc"/><rect x="651.938" y="152.016" width="73.396" height="2.727" fill="#ccc"/><rect x="628.663" y="136.429" width="16.629" height="16.629" fill="#ccc"/><rect x="651.938" y="328.743" width="73.396" height="2.727" fill="#ccc"/><rect x="651.938" y="337.38" width="73.396" height="2.727" fill="#ccc"/><rect x="651.938" y="346.016" width="73.396" height="2.727" fill="#ccc"/><rect x="628.663" y="330.429" width="16.629" height="16.629" fill="#ccc"/><path d="M692.863,242.845c-3.729,13.786-16.5,22.324-16.5,22.324s-6.728-13.813-3-27.6,16.5-22.324,16.5-22.324S696.593,229.059,692.863,242.845Z" fill="#3857f1"/><path d="M658.936,242.845c3.729,13.786,16.5,22.324,16.5,22.324s6.728-13.813,3-27.6-16.5-22.324-16.5-22.324S655.206,229.059,658.936,242.845Z" fill="#3857f1"/><path d="M664.416,239.882c10.234,9.962,11.484,25.276,11.484,25.276s-15.343-.838-25.576-10.8-11.484-25.276-11.484-25.276S654.182,229.92,664.416,239.882Z" fill="#57576b"/><path d="M687.383,239.882c-10.233,9.962-11.483,25.276-11.483,25.276s15.342-.838,25.575-10.8,11.484-25.276,11.484-25.276S697.617,229.92,687.383,239.882Z" fill="#57576b"/><path d="M76.515,189.015c-15.346.329-27.554,11.45-27.554,11.45s12.673,10.588,28.02,10.259,27.554-11.451,27.554-11.451S91.862,188.685,76.515,189.015Z" fill="#c7d1f2"/><path d="M153.67,136.629c-13.865,6.587-29.764,2.12-29.764,2.12s6.581-15.146,20.446-21.733,29.763-2.12,29.763-2.12S167.535,130.042,153.67,136.629Z" fill="#c7d1f2"/><path d="M152.26,130.083c-15.286-1.4-28.666,8.283-28.666,8.283s11.4,11.944,26.69,13.341,28.667-8.282,28.667-8.282S167.547,131.48,152.26,130.083Z" fill="#57576b"/><path d="M96.225,132.73c1.465,15.28-8.154,28.7-8.154,28.7s-12-11.351-13.461-26.631,8.155-28.7,8.155-28.7S94.76,117.45,96.225,132.73Z" fill="#57576b"/><path d="M24.234,226.441c8.018,13.09,5.259,29.372,5.259,29.372s-15.758-4.94-23.775-18.03S.458,208.411.458,208.411,16.216,213.352,24.234,226.441Z" fill="#57576b"/><path d="M47.5,368.76H46.213a39.307,39.307,0,0,0,6.574-21.091c-.033-10.616-5.248-20.436-10.291-29.933-.936-1.762-1.869-3.52-2.767-5.275a115.222,115.222,0,0,1-8.957-22.487c-7.823-29.07-.121-63.368,20.6-91.746,16.439-22.512,40.945-42.2,74.917-60.182l.66,1.246c-33.779,17.882-58.128,37.432-74.438,59.768C32.039,227.1,24.421,260.946,32.134,289.608a113.78,113.78,0,0,0,8.851,22.211c.894,1.749,1.824,3.5,2.757,5.256,5.123,9.648,10.421,19.624,10.455,30.59A38.03,38.03,0,0,1,47.5,368.76Z" fill="#57576b"/><circle cx="193.255" cy="126.502" r="13.396" fill="#57576b"/></svg>