<svg xmlns="http://www.w3.org/2000/svg" width="369.549" height="72.949" viewBox="0 0 369.549 72.949"><title>sinatra-logo</title><path d="M153.882,44.813H161.8q0,4.75,2.616,7.311a9.267,9.267,0,0,0,6.768,2.561,9.081,9.081,0,0,0,3.1-.523,8.012,8.012,0,0,0,2.533-1.448,6.71,6.71,0,0,0,1.7-2.241,6.827,6.827,0,0,0,.625-2.965,6.074,6.074,0,0,0-.726-3.1,7,7,0,0,0-1.874-2.106,12.475,12.475,0,0,0-2.5-1.449q-1.352-.588-2.6-.993-3.309-1.181-6.2-2.393a22.183,22.183,0,0,1-5.062-2.9,12.18,12.18,0,0,1-3.413-4.111,13.2,13.2,0,0,1-1.245-6.064,12.1,12.1,0,0,1,1.212-5.424,13.162,13.162,0,0,1,3.247-4.212,14.288,14.288,0,0,1,4.745-2.678,17.7,17.7,0,0,1,5.771-.927,16.7,16.7,0,0,1,6.072,1.1,14.494,14.494,0,0,1,4.907,3.1,14.232,14.232,0,0,1,3.238,4.767,15.644,15.644,0,0,1,1.164,6.132h-7.917a8.432,8.432,0,0,0-1.942-5.778,6.721,6.721,0,0,0-5.319-2.207A8.631,8.631,0,0,0,165.6,19.78a5.273,5.273,0,0,0-2.144,4.616,5.482,5.482,0,0,0,.59,2.577,6.5,6.5,0,0,0,1.588,1.971,10.645,10.645,0,0,0,2.245,1.449,28.182,28.182,0,0,0,2.634,1.112q2.836,1.046,5.771,2.207a25.114,25.114,0,0,1,5.344,2.88,14.518,14.518,0,0,1,3.928,4.144,10.837,10.837,0,0,1,1.517,5.863,15.438,15.438,0,0,1-1.315,6.57,13.645,13.645,0,0,1-3.592,4.75,15.579,15.579,0,0,1-5.278,2.9,20.509,20.509,0,0,1-6.375.977,17.619,17.619,0,0,1-6.31-1.146,15.541,15.541,0,0,1-5.284-3.319,16.355,16.355,0,0,1-3.652-5.306A17.735,17.735,0,0,1,153.882,44.813Z" fill="#131313"/><path d="M193.606,16.714a5.521,5.521,0,0,1,5.526-5.559,5.522,5.522,0,0,1,5.592,5.559,5.323,5.323,0,0,1-1.617,3.908,5.4,5.4,0,0,1-3.975,1.618,5.522,5.522,0,0,1-5.526-5.526Zm1.819,43.9V28.472h7.514V60.614Z" fill="#131313"/><path d="M213.149,60.614V28.472h7.513V32.9a9.81,9.81,0,0,1,4.211-3.937,13.953,13.953,0,0,1,6.267-1.335,13.248,13.248,0,0,1,5.9,1.18,9.719,9.719,0,0,1,3.773,3.167,11.08,11.08,0,0,1,1.617,3.992,29.19,29.19,0,0,1,.438,5.542v19.1h-7.513V43.928A20.177,20.177,0,0,0,235,40.061a9.045,9.045,0,0,0-1.146-3.074,5.922,5.922,0,0,0-2.123-2.026,6.68,6.68,0,0,0-3.352-.761,6.536,6.536,0,0,0-5.829,2.8,12.121,12.121,0,0,0-1.886,6.924V60.614Z" fill="#131313"/><path d="M248.593,44.543a17.452,17.452,0,0,1,1.213-6.451,17.105,17.105,0,0,1,3.386-5.425,15.73,15.73,0,0,1,5.2-3.689,16.25,16.25,0,0,1,6.671-1.348,12.593,12.593,0,0,1,5.626,1.382,10.348,10.348,0,0,1,4.313,3.807V28.472h7.513V60.614h-7.513V56.268a10.348,10.348,0,0,1-4.313,3.807,12.593,12.593,0,0,1-5.626,1.382,16.209,16.209,0,0,1-6.687-1.348,15.641,15.641,0,0,1-5.189-3.706,17.437,17.437,0,0,1-3.386-5.391A17.246,17.246,0,0,1,248.593,44.543Zm7.513,0a11.747,11.747,0,0,0,.657,3.925,9.319,9.319,0,0,0,4.886,5.459,8.865,8.865,0,0,0,3.857.825,9.118,9.118,0,0,0,6.89-3.032,10.078,10.078,0,0,0,1.92-3.252,11.493,11.493,0,0,0,0-7.85,10.084,10.084,0,0,0-1.92-3.251,9.118,9.118,0,0,0-6.89-3.032,8.879,8.879,0,0,0-3.857.825,9.406,9.406,0,0,0-2.982,2.207,9.519,9.519,0,0,0-1.9,3.234A11.715,11.715,0,0,0,256.106,44.543Z" fill="#131313"/><path d="M287.542,34.739V28.472H293V18.736h7.514v9.736h7.379v6.267h-7.379V48a14.523,14.523,0,0,0,.3,3.308,4.153,4.153,0,0,0,.926,1.907,3.043,3.043,0,0,0,1.483.878,8.015,8.015,0,0,0,1.971.219q.909,0,2.089-.084A11.154,11.154,0,0,0,309,54.01v6.6q-.909.135-2.426.27t-3.167.135a24.726,24.726,0,0,1-3.167-.236,7.874,7.874,0,0,1-3.419-1.348,8.325,8.325,0,0,1-2.729-3.386A14.923,14.923,0,0,1,293,49.7V34.739Z" fill="#131313"/><path d="M314.025,60.614V28.472h7.513v5.209a7.693,7.693,0,0,1,1.55-2.125,12.245,12.245,0,0,1,2.341-1.8,12.413,12.413,0,0,1,2.9-1.258,11.16,11.16,0,0,1,3.151-.459,7.5,7.5,0,0,1,2.965.51V35.48a15.094,15.094,0,0,0-1.5-.269,13.273,13.273,0,0,0-1.466-.067q-4.819,0-7.379,2.788t-2.56,8.838V60.614Z" fill="#131313"/><path d="M335.622,44.543a17.452,17.452,0,0,1,1.213-6.451,17.105,17.105,0,0,1,3.386-5.425,15.734,15.734,0,0,1,5.206-3.689,16.242,16.242,0,0,1,6.67-1.348,12.6,12.6,0,0,1,5.627,1.382,10.354,10.354,0,0,1,4.313,3.807V28.472h7.512V60.614h-7.512V56.268a10.354,10.354,0,0,1-4.313,3.807,12.6,12.6,0,0,1-5.627,1.382,16.209,16.209,0,0,1-6.687-1.348,15.651,15.651,0,0,1-5.189-3.706,17.437,17.437,0,0,1-3.386-5.391A17.246,17.246,0,0,1,335.622,44.543Zm7.513,0a11.747,11.747,0,0,0,.657,3.925,9.319,9.319,0,0,0,4.886,5.459,8.865,8.865,0,0,0,3.857.825,9.118,9.118,0,0,0,6.89-3.032,10.078,10.078,0,0,0,1.92-3.252,11.477,11.477,0,0,0,0-7.85,10.084,10.084,0,0,0-1.92-3.251,9.118,9.118,0,0,0-6.89-3.032,8.879,8.879,0,0,0-3.857.825,9.406,9.406,0,0,0-2.982,2.207,9.519,9.519,0,0,0-1.9,3.234A11.715,11.715,0,0,0,343.135,44.543Z" fill="#131313"/><path d="M41.8,18.991,35.1,29.318l-.055.087a19.058,19.058,0,0,1-31.684.457L2.82,29.02l-.042-.059A19.055,19.055,0,0,1,34.938,8.527l.165.257Z" fill="#f7b40d"/><path d="M106.546,53.9A19.056,19.056,0,0,1,71.6,64.407l-.156-.242L64.668,53.847,71.337,43.8l.586-.883.046-.069a19.055,19.055,0,0,1,31.2.229l.371.554.087.137A18.937,18.937,0,0,1,106.546,53.9Z" fill="#8d66d8"/><path d="M104.546,62.408a19.062,19.062,0,0,1-32.947,2l-.156-.243L64.669,53.848,71.338,43.8l.586-.884.045-.068c.339-.472.7-.929,1.076-1.369l-5.172,7.791,6.774,10.317.156.243a19.06,19.06,0,0,0,29.743,2.577Z" opacity="0.1"/><path d="M103.045,42.9a19.064,19.064,0,0,0-26.5,4.527L76.5,47.5l-.586.883L69.246,58.425s-.284.435-.8,1.177l-3.776-5.754L71.338,43.8l.586-.884.045-.068a19.054,19.054,0,0,1,31.076.05Z" opacity="0.1"/><path d="M41.805,18.992,35.1,29.318l-.055.087a19.057,19.057,0,0,1-31.684.458l-.545-.842-.041-.06c-.279-.457-.535-.924-.773-1.4a19.049,19.049,0,0,0,29.839-2.728l.055-.087,6.7-10.326.1-.151Z" opacity="0.1"/><path d="M103.172,43.077a19.055,19.055,0,0,0-31.2-.229l-.046.069-.586.883L64.668,53.847s-12.382,19.1-22.905,19.1a19.027,19.027,0,0,1-16.048-8.783L3.364,29.862a19.058,19.058,0,0,0,31.684-.457l.055-.087,6.7-10.327L48.423,8.784l.055-.087a19.058,19.058,0,0,1,31.9-.133l.142.22Z" fill="#e04b44"/><path d="M42.981,72.862a8.342,8.342,0,0,1-1.217.087,19.028,19.028,0,0,1-16.048-8.784L3.365,29.863a19.038,19.038,0,0,0,11.841,7.846L33.04,65.081A19.084,19.084,0,0,0,42.981,72.862Z" opacity="0.1"/></svg>