<svg xmlns="http://www.w3.org/2000/svg" width="150" height="88.07"><path fill="#b8c5cc" d="M50.667 0v88.07h-2V0zM101.333 0v88.07h-2V0z"/><path fill="#eee" d="M0 0h48.667v88.07H0zM50.667 0h48.667v88.07H50.667zM101.333 0H150v88.07h-48.667z"/><path d="M21.634 40.447a4.834 4.834 0 00.84-.072 2.615 2.615 0 00.737-.24 1.867 1.867 0 00.564-.432 1.315 1.315 0 00.307-.648H25.2v8.4h-1.5v-5.928h-2.066zM77.868 47.455h-5.736a3.422 3.422 0 01.5-1.824 4.611 4.611 0 011.344-1.356q.408-.3.852-.582a6.747 6.747 0 00.816-.606 3.228 3.228 0 00.612-.7 1.666 1.666 0 00.252-.87 2.377 2.377 0 00-.054-.486 1.286 1.286 0 00-.21-.48 1.238 1.238 0 00-.432-.372 1.5 1.5 0 00-.72-.15 1.3 1.3 0 00-.678.162 1.211 1.211 0 00-.432.444 2.215 2.215 0 00-.24.666 4.815 4.815 0 00-.09.828h-1.364a4.3 4.3 0 01.186-1.29 2.861 2.861 0 01.558-1.026 2.633 2.633 0 01.906-.678 3.327 3.327 0 012.526.006 2.469 2.469 0 01.834.636 2.326 2.326 0 01.45.834 3.048 3.048 0 01.132.858 2.536 2.536 0 01-.156.912 2.937 2.937 0 01-.42.75 4.245 4.245 0 01-.6.63q-.336.288-.7.54t-.72.48q-.36.228-.666.456a3.911 3.911 0 00-.534.474 1.346 1.346 0 00-.312.522h4.092zM125.067 42.535a3.169 3.169 0 00.672-.048 1.87 1.87 0 00.6-.21 1.173 1.173 0 00.426-.414 1.217 1.217 0 00.162-.648 1.1 1.1 0 00-.366-.864 1.368 1.368 0 00-.942-.324 1.238 1.238 0 00-1.062.534 1.749 1.749 0 00-.258.552 2.076 2.076 0 00-.072.63h-1.368a3.467 3.467 0 01.228-1.134 2.853 2.853 0 01.558-.906 2.478 2.478 0 01.858-.6 2.868 2.868 0 011.14-.216 3.306 3.306 0 01.966.144 2.824 2.824 0 01.852.42 2.019 2.019 0 01.834 1.68 2.1 2.1 0 01-.288 1.11 1.647 1.647 0 01-.9.69v.024a1.734 1.734 0 011.122.714 2.561 2.561 0 01.162 2.46 2.438 2.438 0 01-.648.8 3 3 0 01-.948.51 3.85 3.85 0 01-2.418-.03 2.456 2.456 0 01-.912-.594 2.565 2.565 0 01-.558-.924 3.77 3.77 0 01-.2-1.2h1.368a1.9 1.9 0 00.378 1.278 1.442 1.442 0 001.206.51 1.716 1.716 0 001.146-.39 1.372 1.372 0 00.462-1.11 1.389 1.389 0 00-.192-.78 1.242 1.242 0 00-.5-.438 2.04 2.04 0 00-.7-.186 6.574 6.574 0 00-.8-.024z" fill="#90a5af"/></svg>