<svg width="150" height="88" fill="none" xmlns="http://www.w3.org/2000/svg">
<rect width="150" height="88" fill="#EEEEEE"/><rect x="98.6667" width="2" height="88" fill="#B8C5CC"/><path d="M46.4693 41.408C46.7573 41.408 47.0373 41.384 47.3093 41.336C47.5813 41.288 47.8253 41.208 48.0413 41.096C48.2653 40.984 48.4533 40.84 48.6053 40.664C48.7653 40.488 48.8693 40.272 48.9173 40.016H50.0333V48.416H48.5333V42.488H46.4693V41.408Z" fill="#90A5AF"/><path d="M128.037 48.5H122.301C122.309 47.804 122.477 47.196 122.805 46.676C123.133 46.156 123.581 45.704 124.149 45.32C124.421 45.12 124.705 44.928 125.001 44.744C125.297 44.552 125.569 44.348 125.817 44.132C126.065 43.916 126.269 43.684 126.429 43.436C126.589 43.18 126.673 42.888 126.681 42.56C126.681 42.408 126.661 42.248 126.621 42.08C126.589 41.904 126.521 41.744 126.417 41.6C126.313 41.448 126.169 41.324 125.985 41.228C125.801 41.124 125.561 41.072 125.265 41.072C124.993 41.072 124.765 41.128 124.581 41.24C124.405 41.344 124.261 41.492 124.149 41.684C124.045 41.868 123.965 42.088 123.909 42.344C123.861 42.6 123.833 42.876 123.825 43.172H122.457C122.457 42.708 122.517 42.28 122.637 41.888C122.765 41.488 122.953 41.144 123.201 40.856C123.449 40.568 123.749 40.344 124.101 40.184C124.461 40.016 124.877 39.932 125.349 39.932C125.861 39.932 126.289 40.016 126.633 40.184C126.977 40.352 127.253 40.564 127.461 40.82C127.677 41.076 127.829 41.356 127.917 41.66C128.005 41.956 128.049 42.24 128.049 42.512C128.049 42.848 127.997 43.152 127.893 43.424C127.789 43.696 127.649 43.948 127.473 44.18C127.297 44.404 127.097 44.612 126.873 44.804C126.649 44.996 126.417 45.176 126.177 45.344C125.937 45.512 125.697 45.672 125.457 45.824C125.217 45.976 124.993 46.128 124.785 46.28C124.585 46.432 124.409 46.592 124.257 46.76C124.105 46.92 124.001 47.092 123.945 47.276H128.037V48.5Z" fill="#90A5AF"/></svg>