<svg width="150" height="88" xmlns="http://www.w3.org/2000/svg"><rect width="150" height="88" fill="#EEEEEE"/><rect x="49.3333" width="2" height="88" fill="#B8C5CC"/><path d="M22.8847 41.192C23.1727 41.192 23.4527 41.168 23.7247 41.12C23.9967 41.072 24.2407 40.992 24.4567 40.88C24.6807 40.768 24.8687 40.624 25.0207 40.448C25.1807 40.272 25.2847 40.056 25.3327 39.8H26.4487V48.2H24.9487V42.272H22.8847V41.192Z" fill="#90A5AF"/><path d="M103.529 48.284H97.7927C97.8007 47.588 97.9687 46.98 98.2967 46.46C98.6247 45.94 99.0727 45.488 99.6407 45.104C99.9127 44.904 100.197 44.712 100.493 44.528C100.789 44.336 101.061 44.132 101.309 43.916C101.557 43.7 101.761 43.468 101.921 43.22C102.081 42.964 102.165 42.672 102.173 42.344C102.173 42.192 102.153 42.032 102.113 41.864C102.081 41.688 102.013 41.528 101.909 41.384C101.805 41.232 101.661 41.108 101.477 41.012C101.293 40.908 101.053 40.856 100.757 40.856C100.485 40.856 100.257 40.912 100.073 41.024C99.8967 41.128 99.7527 41.276 99.6407 41.468C99.5367 41.652 99.4567 41.872 99.4007 42.128C99.3527 42.384 99.3247 42.66 99.3167 42.956H97.9487C97.9487 42.492 98.0087 42.064 98.1287 41.672C98.2567 41.272 98.4447 40.928 98.6927 40.64C98.9407 40.352 99.2407 40.128 99.5927 39.968C99.9527 39.8 100.369 39.716 100.841 39.716C101.353 39.716 101.781 39.8 102.125 39.968C102.469 40.136 102.745 40.348 102.953 40.604C103.169 40.86 103.321 41.14 103.409 41.444C103.497 41.74 103.541 42.024 103.541 42.296C103.541 42.632 103.489 42.936 103.385 43.208C103.281 43.48 103.141 43.732 102.965 43.964C102.789 44.188 102.589 44.396 102.365 44.588C102.141 44.78 101.909 44.96 101.669 45.128C101.429 45.296 101.189 45.456 100.949 45.608C100.709 45.76 100.485 45.912 100.277 46.064C100.077 46.216 99.9007 46.376 99.7487 46.544C99.5967 46.704 99.4927 46.876 99.4367 47.06H103.529V48.284Z" fill="#90A5AF"/></svg>