<svg xmlns="http://www.w3.org/2000/svg" viewBox="0 0 232.12 21"><defs><style>.cls-1,.cls-2{fill:#fff;}.cls-2{fill-opacity:0.5;}</style></defs><title>wpbh</title><g id="Layer_2" data-name="Layer 2"><g id="Layer_1-2" data-name="Layer 1"><path class="cls-1" d="M119,14.25V11.5h-2.72V10.35H119V7.63h1.17v2.72h2.72V11.5h-2.72v2.75Z"/><path class="cls-1" d="M10.5.63a9.87,9.87,0,0,1,3.84,19A9.87,9.87,0,0,1,2.32,5,9.81,9.81,0,0,1,6.67,1.41,9.72,9.72,0,0,1,10.5.63m0-.63A10.5,10.5,0,1,0,21,10.5,10.5,10.5,0,0,0,10.5,0"/><path class="cls-1" d="M1.75,10.5a8.74,8.74,0,0,0,4.94,7.88L2.51,6.94a8.72,8.72,0,0,0-.76,3.56m14.66-.44a4.69,4.69,0,0,0-.72-2.42,4.56,4.56,0,0,1-.86-2A1.58,1.58,0,0,1,16.3,4h.11a8.75,8.75,0,0,0-12.36.55,9.05,9.05,0,0,0-.86,1.1h.57c.91,0,2.33-.11,2.33-.11a.36.36,0,0,1,0,.72s-.47,0-1,.08l3.18,9.49,1.91-5.75L8.87,6.38C8.4,6.35,8,6.3,8,6.3a.36.36,0,0,1,0-.72s1.45.11,2.3.11,2.33-.11,2.33-.11a.36.36,0,0,1,0,.72s-.47,0-1,.08l3.16,9.41.9-2.85a10.18,10.18,0,0,0,.64-2.89m-5.75,1.21L8,18.89a8.83,8.83,0,0,0,5.38-.14l-.06-.11Zm7.53-5a6.69,6.69,0,0,1,.06.9,8.33,8.33,0,0,1-.66,3.13L14.9,18.06A8.76,8.76,0,0,0,18.18,6.3"/><path class="cls-1" d="M58.54,7.79H54.37v.44c1.3,0,1.51.29,1.51,1.93v3c0,1.65-.21,2-1.51,2a4.25,4.25,0,0,1-2.62-1.7l-1.07-1.17a2.33,2.33,0,0,0,2.22-2.19c0-1.28-1.09-2.27-3.15-2.27H45.64v.44c1.31,0,1.52.28,1.52,1.93v3c0,1.65-.21,2-1.52,2v.44h4.64v-.42c-1.3,0-1.51-.3-1.51-2v-.84h.4l2.59,3.24h6.8c3.34,0,4.79-1.77,4.79-3.89S61.9,7.79,58.56,7.79m-9.78,3.8V8.49h1a1.43,1.43,0,0,1,1.51,1.57,1.41,1.41,0,0,1-1.51,1.54Zm9.85,3.25h-.17c-.84,0-1-.21-1-1.28V8.49h1.12c2.43,0,2.87,1.78,2.87,3.15s-.44,3.2-2.87,3.2"/><path class="cls-1" d="M32.64,12.46l1.61-4.75c.46-1.38.25-1.78-1.24-1.78V5.46H37.4v.46c-1.47,0-1.82.35-2.4,2.06l-2.66,8H32L29.65,8.65,27.23,16h-.31L24.33,8c-.56-1.7-.94-2.06-2.29-2.06V5.46h5.18v.46c-1.38,0-1.76.33-1.26,1.78l1.56,4.75,2.37-7h.44Z"/><path class="cls-1" d="M40.57,15.87a4.46,4.46,0,0,1-4.66-4.2,4.45,4.45,0,0,1,4.66-4.18,4.46,4.46,0,0,1,4.66,4.18,4.48,4.48,0,0,1-4.66,4.2m0-7.66c-2.14,0-2.9,1.93-2.9,3.46s.76,3.45,2.9,3.45,2.92-1.91,2.92-3.45-.74-3.46-2.92-3.46"/><path class="cls-1" d="M69.09,15.1v.46H63.75V15.1c1.56,0,1.84-.4,1.84-2.73V8.63c0-2.33-.28-2.71-1.84-2.71V5.46h4.83c2.4,0,3.73,1.24,3.73,2.9S71,11.22,68.58,11.22H67.24v1.15c0,2.33.29,2.73,1.85,2.73m-.51-8.8H67.24v4.06h1.34a1.82,1.82,0,0,0,1.91-2A1.87,1.87,0,0,0,68.58,6.3"/><path class="cls-1" d="M88.34,13.37l-.12.42c-.21.76-.46,1.05-2.12,1.05h-.33c-1.21,0-1.42-.29-1.42-1.94V11.83c1.81,0,2,.17,2,1.38h.44V9.73h-.44c0,1.22-.14,1.38-2,1.38V8.49h1.28c1.66,0,1.91.29,2.12,1l.11.45h.38l-.17-2.2H81.22v.44c1.3,0,1.51.29,1.51,1.93v3c0,1.51-.18,1.9-1.21,1.95A4.32,4.32,0,0,1,79,13.41l-1.07-1.17a2.32,2.32,0,0,0,2.21-2.19c0-1.28-1.09-2.27-3.15-2.27H72.85v.44c1.3,0,1.51.29,1.51,1.93v3c0,1.65-.21,2-1.51,2v.44h4.64v-.42c-1.3,0-1.51-.3-1.51-2v-.84h.4L79,15.56h9.59l.13-2.19ZM76,11.59V8.49h1a1.44,1.44,0,0,1,1.52,1.57,1.42,1.42,0,0,1-1.52,1.54Z"/><path class="cls-1" d="M93.07,15.87a3.48,3.48,0,0,1-2.1-.8,1.7,1.7,0,0,0-.38.8h-.44V12.64h.47a2.58,2.58,0,0,0,2.63,2.45c.75,0,1.36-.42,1.36-1.12s-.54-1.08-1.5-1.52l-1.33-.63a2.54,2.54,0,0,1-1.64-2.23,2.36,2.36,0,0,1,2.5-2.08,2.92,2.92,0,0,1,1.82.61,1.42,1.42,0,0,0,.3-.63h.44v2.75h-.49c-.17-1.09-.77-2-2-2-.65,0-1.26.38-1.26,1s.5.93,1.61,1.45l1.28.63a2.41,2.41,0,0,1,1.57,2.1,2.64,2.64,0,0,1-2.85,2.5"/><path class="cls-1" d="M100.13,15.87a3.43,3.43,0,0,1-2.1-.8,1.61,1.61,0,0,0-.38.8h-.44V12.64h.46a2.58,2.58,0,0,0,2.64,2.45A1.2,1.2,0,0,0,101.66,14c0-.71-.53-1.08-1.49-1.52l-1.33-.63A2.53,2.53,0,0,1,97.2,9.59a2.36,2.36,0,0,1,2.5-2.08,2.87,2.87,0,0,1,1.81.61,1.41,1.41,0,0,0,.31-.63h.44v2.75h-.49c-.17-1.09-.77-2-2-2-.65,0-1.26.38-1.26,1s.49.93,1.61,1.45l1.28.63a2.41,2.41,0,0,1,1.56,2.1,2.63,2.63,0,0,1-2.84,2.5"/><rect class="cls-1" x="135.84" y="2.5" width="4.36" height="4.39"/><rect class="cls-1" x="141.47" y="2.5" width="4.37" height="4.39"/><rect class="cls-1" x="147.1" y="2.5" width="4.37" height="4.39"/><rect class="cls-1" x="135.84" y="8.18" width="4.36" height="4.39"/><rect class="cls-1" x="141.47" y="8.18" width="4.37" height="4.39"/><rect class="cls-1" x="147.1" y="8.18" width="4.37" height="4.39"/><rect class="cls-1" x="135.84" y="13.86" width="4.36" height="4.39"/><rect class="cls-1" x="141.47" y="13.86" width="4.37" height="4.39"/><rect class="cls-2" x="147.1" y="13.86" width="4.37" height="4.39"/><path class="cls-1" d="M160.4,16.82a5.84,5.84,0,0,0,2.64.66c2.05,0,4-1.21,4-4.23,0-2.67-1.48-4.2-3.37-4.2a4.49,4.49,0,0,0-3.23,1.58Zm0-7.52A5.05,5.05,0,0,1,163.73,8c2.23,0,4.39,1.53,4.39,5.21s-2.42,5.25-5,5.25a7.75,7.75,0,0,1-3.82-1V2.51h1.11Z"/><rect class="cls-1" x="170.07" y="2.5" width="1.07" height="15.8"/><path class="cls-1" d="M174.87,14.36c0,2.4,1.17,3.06,2.34,3.06a4.34,4.34,0,0,0,3.46-2.22v-7h1.12V18.3h-1.12V16.35a4.74,4.74,0,0,1-3.82,2.11c-1.58,0-3.1-.91-3.1-4V8.19h1.12Z"/><path class="cls-1" d="M192,12.57a3.33,3.33,0,0,0-3.25-3.51A3.61,3.61,0,0,0,185,12.57Zm.46,5.06a7.1,7.1,0,0,1-3.59.87c-3.37-.12-5.1-2.78-5-5.63a4.73,4.73,0,0,1,5-4.82c2.7.07,4.55,2.25,4.19,5.44H185a3.9,3.9,0,0,0,4,4,6.19,6.19,0,0,0,3.14-.77Z"/><path class="cls-1" d="M196.69,10.17A4.46,4.46,0,0,1,200.37,8c2,0,3.2,1.53,3.2,3.79V18.3h-1.11V12.05c0-2.19-1.11-3-2.32-3a4.32,4.32,0,0,0-3.45,2.28V18.3h-1.12V2.51h1.12Z"/><path class="cls-1" d="M206.52,13.23c0,2.24,1.29,4.19,3.71,4.19s3.71-2,3.71-4.19-1.37-4.15-3.71-4.15S206.52,11,206.52,13.23Zm8.54,0c0,3.35-2.25,5.23-4.83,5.23-2.9,0-4.84-2.34-4.84-5.23A4.9,4.9,0,0,1,210.23,8,4.83,4.83,0,0,1,215.06,13.23Z"/><path class="cls-1" d="M217.61,16.56a4.86,4.86,0,0,0,2.68.86c1.05,0,2.35-.44,2.34-1.51,0-.91-1-1.62-2.5-2.23-1.71-.68-3.2-1.31-3.2-2.93s1.5-2.7,3.48-2.7a6,6,0,0,1,2.79.73l-.42.89a5,5,0,0,0-2.34-.59c-1.66,0-2.41.82-2.41,1.67,0,1.09,1.23,1.5,2.78,2.14,2.43.95,2.94,2,2.94,3,0,1.58-1.47,2.58-3.43,2.58a6.29,6.29,0,0,1-3.19-.92Z"/><path class="cls-1" d="M231.08,8.19v1h-3.33v5.53c0,1.63.69,2.69,2.15,2.75a4.18,4.18,0,0,0,1.89-.4l.33,1a6.09,6.09,0,0,1-2.24.45c-1.81,0-3.25-1.11-3.25-3.71V9.14h-1.8v-1h1.8V4.79h1.12v3.4Z"/></g></g></svg>